<?xml version="1.0" standalone="no"?>
<!DOCTYPE svg PUBLIC "-//W3C//DTD SVG 20010904//EN"
 "http://www.w3.org/TR/2001/REC-SVG-20010904/DTD/svg10.dtd">
<svg version="1.0" xmlns="http://www.w3.org/2000/svg"
 width="640.000000pt" height="640.000000pt" viewBox="0 0 640.000000 640.000000"
 preserveAspectRatio="xMidYMid meet">
<metadata>
Created by potrace 1.14, written by Peter Selinger 2001-2017
</metadata>
<g transform="translate(0.000000,640.000000) scale(0.100000,-0.100000)"
fill="#000000" stroke="none">
<path d="M3288 4850 c-224 -38 -530 -202 -625 -336 -52 -72 -127 -218 -121
-234 2 -7 12 4 23 24 12 22 25 34 33 31 7 -3 26 5 42 17 17 12 50 23 78 26 44
4 52 2 62 -17 7 -15 17 -20 29 -16 31 9 73 -37 121 -131 44 -87 45 -91 46
-189 0 -90 -2 -103 -23 -128 -13 -16 -23 -41 -23 -57 0 -22 6 -30 31 -39 34
-12 325 -15 378 -5 41 9 58 37 38 67 -13 20 -12 26 4 57 11 19 19 52 19 72 0
40 16 119 31 153 34 75 113 185 135 185 5 0 22 14 38 30 48 49 116 63 209 43
50 -11 127 -56 127 -74 0 -6 13 -28 28 -48 39 -50 50 -80 58 -153 3 -35 12
-73 20 -85 9 -15 10 -24 3 -28 -6 -4 -7 -19 -4 -35 4 -16 0 -43 -9 -65 -9 -21
-13 -48 -10 -62 5 -17 0 -34 -15 -53 -11 -16 -21 -32 -21 -36 0 -18 -148 -205
-206 -260 -61 -59 -63 -62 -45 -79 18 -15 21 -15 44 0 16 10 34 14 51 9 32 -8
56 7 149 89 40 36 84 86 107 126 22 36 50 78 61 93 27 33 37 146 19 215 -6 26
-13 89 -15 138 -1 50 -8 110 -15 135 -26 99 -74 223 -101 263 -38 57 -176 209
-202 224 l-22 12 23 1 c12 0 22 4 22 9 0 12 -75 51 -98 51 -9 0 -81 16 -159
35 -145 36 -217 41 -315 25z m-73 -875 c11 -2 23 -4 27 -4 16 -2 78 -76 74
-87 -3 -9 2 -14 13 -14 25 0 34 -25 14 -42 -22 -18 -366 -19 -384 -1 -15 15 4
67 31 86 10 7 17 14 17 17 -2 13 20 37 43 47 22 11 101 10 165 -2z"/>
<path d="M2491 4133 c-1 -6 -4 -20 -7 -30 -5 -17 -5 -17 6 0 6 10 9 23 6 30
-3 9 -5 9 -5 0z"/>
<path d="M3648 4112 c-49 -30 -75 -117 -45 -154 25 -31 62 -48 107 -48 58 0
87 20 100 70 27 100 -77 185 -162 132z"/>
<path d="M2670 4112 c-54 -24 -80 -62 -80 -121 0 -49 27 -71 94 -78 37 -5 47
-1 79 27 45 39 57 88 33 125 -23 34 -94 60 -126 47z"/>
<path d="M2461 4014 c0 -11 3 -14 6 -6 3 7 2 16 -1 19 -3 4 -6 -2 -5 -13z"/>
<path d="M2441 3903 c0 -4 4 -17 9 -28 8 -19 9 -19 9 2 1 12 -3 25 -9 28 -5 3
-10 3 -9 -2z"/>
<path d="M2426 3838 c-9 -36 -7 -85 6 -113 13 -29 32 -34 23 -6 -3 10 -7 44
-9 75 -3 62 -10 78 -20 44z"/>
<path d="M2455 3680 c-11 -18 35 -102 106 -191 39 -49 76 -89 82 -89 7 0 24
-7 40 -14 28 -15 36 -9 15 13 -11 10 -9 15 6 27 23 17 24 16 -39 39 -61 22
-105 68 -152 158 -35 66 -46 77 -58 57z"/>
<path d="M2324 3610 c-28 -4 -73 -15 -100 -23 -59 -20 -159 -42 -274 -63 -47
-8 -107 -22 -135 -30 -27 -8 -93 -19 -145 -25 -52 -5 -111 -14 -131 -19 -35
-10 -36 -11 -48 -79 -16 -102 -15 -108 20 -120 16 -6 29 -16 28 -23 -6 -51 3
-96 27 -123 15 -18 28 -25 32 -19 4 6 16 14 27 18 35 14 208 54 260 61 28 3
60 8 72 11 17 3 25 -3 38 -30 9 -19 14 -43 11 -53 -13 -42 48 -153 85 -153 9
0 22 -7 30 -16 16 -20 63 -44 85 -44 9 0 23 8 30 18 12 16 15 14 40 -17 27
-33 28 -33 88 -26 33 3 76 13 94 21 39 16 92 19 92 5 0 -5 -5 -22 -11 -38 -23
-60 -80 -303 -96 -412 -12 -89 -14 -121 -5 -146 7 -17 12 -56 12 -86 0 -66 22
-174 44 -217 9 -17 28 -39 41 -48 14 -9 29 -33 35 -55 7 -25 15 -36 24 -33 7
3 19 -3 27 -12 11 -14 11 -18 1 -22 -10 -3 -10 -7 -1 -18 9 -12 5 -14 -24 -14
-55 0 -76 -25 -84 -99 -4 -43 -3 -62 4 -58 6 4 13 29 15 56 3 28 11 57 18 66
23 28 100 12 100 -21 0 -8 -7 -28 -15 -44 -12 -22 -23 -30 -43 -30 -20 0 -33
-8 -45 -29 -21 -35 -21 -41 -4 -41 8 0 19 12 25 26 18 38 63 30 74 -12 11 -43
30 -48 71 -19 61 41 75 41 83 1 5 -29 11 -36 29 -36 12 0 30 9 40 20 10 11 55
32 99 46 95 30 116 46 116 88 0 39 -10 53 -45 72 -33 17 -113 10 -130 -11 -6
-7 -24 -16 -40 -19 -17 -3 -40 -8 -52 -12 -15 -4 -23 -2 -23 5 0 6 -11 16 -24
22 -14 7 -27 21 -30 33 -3 12 -24 37 -48 56 -23 19 -55 48 -72 64 -17 15 -47
42 -66 60 -67 61 -72 76 -76 217 -1 71 -8 137 -13 148 -13 24 9 189 38 291 10
36 29 103 41 150 34 127 46 157 102 236 27 40 47 78 43 83 -11 19 -33 12 -58
-19 -14 -16 -28 -30 -31 -30 -2 0 -7 14 -11 30 -4 17 -10 30 -15 30 -8 0 -32
62 -56 144 -10 36 -11 53 -2 69 10 20 11 20 25 -6 17 -33 25 -35 18 -4 -7 25
26 64 43 53 6 -3 12 1 16 9 7 19 -8 27 -40 23 -24 -3 -27 2 -55 87 -40 127
-78 153 -195 135z m121 -59 c7 -13 -26 -31 -57 -31 -13 0 -44 -1 -71 -3 -26
-1 -47 1 -47 6 0 4 3 7 8 7 4 1 30 7 57 15 60 16 102 19 110 6z m-465 -80
c-21 -12 -276 -71 -306 -71 -15 0 -24 -6 -24 -15 0 -8 -7 -15 -15 -15 -9 0
-15 9 -15 24 0 22 7 25 91 40 50 9 117 19 148 22 31 4 63 10 71 15 8 4 26 8
40 8 19 0 21 -2 10 -8z m235 -120 c10 -17 -12 -21 -25 -6 -10 12 -10 15 3 15
9 0 18 -4 22 -9z m-375 -81 c0 -5 -5 -10 -11 -10 -5 0 -7 5 -4 10 3 6 8 10 11
10 2 0 4 -4 4 -10z m270 -106 c0 -17 -22 -14 -28 4 -2 7 3 12 12 12 9 0 16 -7
16 -16z m80 -195 c0 -35 -3 -35 -69 -7 -59 24 -56 35 9 40 57 4 60 3 60 -33z
m556 -1245 c19 -5 20 -10 14 -39 -6 -29 -63 -94 -82 -95 -12 0 -20 40 -13 67
8 34 35 73 49 73 6 0 21 -3 32 -6z m244 2 c0 -2 -9 -6 -20 -9 -11 -3 -18 -1
-14 4 5 9 34 13 34 5z m1 -50 c-10 -11 -8 -15 6 -19 10 -2 1 -4 -20 -3 -33 0
-35 1 -17 11 11 6 17 14 14 18 -4 4 1 7 11 7 14 0 15 -3 6 -14z m-63 -29 c3
-12 -9 -22 -41 -36 -25 -11 -48 -25 -52 -31 -10 -17 -25 7 -25 41 0 37 18 49
69 46 34 -1 47 -6 49 -20z"/>
<path d="M3950 3462 c0 -5 23 -19 51 -30 l51 -22 -6 -53 -5 -54 67 -53 c67
-53 209 -217 243 -281 10 -19 30 -65 45 -104 23 -63 49 -117 107 -227 26 -48
18 -70 -21 -59 -63 19 -94 42 -114 89 -32 71 -55 98 -144 162 -103 75 -190
162 -229 228 -16 29 -33 52 -37 52 -15 0 -8 -50 11 -81 11 -17 17 -37 15 -44
-5 -13 25 -85 95 -225 30 -60 44 -78 73 -92 20 -10 43 -27 52 -39 14 -21 16
-21 22 -5 4 10 -1 43 -10 73 -10 30 -15 57 -12 60 3 3 29 -21 58 -53 84 -93
93 -101 136 -123 46 -24 131 -29 133 -8 4 41 -7 80 -41 147 -20 41 -43 93 -50
115 -7 22 -23 61 -36 87 -25 50 -239 317 -286 356 -19 16 -27 30 -23 42 3 11
-1 20 -10 24 -10 4 -14 13 -10 29 8 30 -25 73 -62 80 -15 3 -36 9 -45 12 -10
4 -18 3 -18 -3z"/>
<path d="M3675 3420 c-16 -11 -25 -20 -19 -20 11 0 64 39 54 40 -3 0 -18 -9
-35 -20z"/>
<path d="M2901 3286 c12 -13 69 -25 74 -15 4 5 -5 9 -19 9 -13 0 -33 3 -43 7
-10 3 -15 3 -12 -1z"/>
<path d="M3787 3155 c-33 -64 -45 -105 -26 -87 7 6 23 12 35 12 24 0 134 97
134 118 0 15 -15 15 -42 1 -14 -8 -23 -8 -27 0 -16 25 -49 6 -74 -44z"/>
<path d="M2688 3133 c7 -3 16 -2 19 1 4 3 -2 6 -13 5 -11 0 -14 -3 -6 -6z"/>
<path d="M2730 3093 c1 -27 60 -57 60 -31 0 4 -6 8 -14 8 -8 0 -16 7 -20 15
-5 15 -26 21 -26 8z"/>
<path d="M2833 3030 c7 -10 27 -29 43 -41 22 -17 20 -13 -11 19 -42 45 -54 53
-32 22z"/>
<path d="M3665 3040 c-3 -5 -1 -10 4 -10 6 0 11 5 11 10 0 6 -2 10 -4 10 -3 0
-8 -4 -11 -10z"/>
<path d="M4222 2585 c0 -11 4 -31 8 -45 6 -20 8 -21 8 -5 0 11 -4 31 -8 45 -6
20 -8 21 -8 5z"/>
<path d="M4247 2421 c4 -44 3 -62 -5 -57 -7 4 -12 -37 -14 -133 -3 -137 -3
-139 -34 -182 -17 -24 -35 -54 -38 -67 -4 -12 -18 -34 -32 -49 -13 -14 -24
-31 -24 -38 0 -7 -16 -30 -36 -51 -20 -22 -43 -49 -51 -61 -28 -41 -156 -69
-185 -40 -7 8 -26 17 -41 21 -29 7 -53 28 -95 81 -21 27 -23 21 -6 -19 8 -21
-86 -28 -334 -24 -184 3 -215 5 -226 19 -8 12 -35 19 -86 24 -42 4 -91 15
-110 25 -19 11 -47 25 -62 32 -16 7 -28 20 -28 31 0 10 -4 16 -9 13 -13 -9 -1
-46 15 -46 7 0 28 -13 47 -29 27 -24 46 -31 97 -36 72 -6 77 -9 62 -27 -8 -10
-3 -13 21 -14 18 0 145 -4 282 -8 162 -5 268 -4 300 3 47 9 51 8 68 -15 10
-13 26 -24 34 -24 8 0 24 -11 35 -25 11 -14 26 -25 34 -25 8 0 14 -6 14 -12 0
-10 2 -10 9 0 6 11 10 11 18 0 23 -27 15 -105 -13 -143 -15 -20 -15 -20 -30
-1 -22 30 -18 82 8 100 12 8 25 13 30 10 4 -3 8 2 8 11 0 12 -5 15 -17 11 -9
-4 -20 -1 -24 6 -13 21 -40 -13 -46 -58 -6 -50 18 -114 45 -114 10 0 31 13 47
30 28 30 29 30 47 10 10 -11 29 -20 41 -20 13 0 32 -7 43 -15 28 -21 32 -19
40 20 8 42 18 50 64 47 31 -2 33 -1 15 10 -41 24 -43 31 -19 73 28 51 47 63
69 45 31 -25 45 -75 32 -115 -9 -32 -14 -36 -36 -30 -24 6 -25 5 -9 -11 11
-11 24 -15 42 -10 35 9 47 84 20 133 -22 42 -69 83 -95 83 -26 0 -25 5 21 59
29 34 54 52 92 66 64 22 127 61 130 78 5 46 3 73 -7 94 -12 22 -14 23 -29 8
-9 -9 -16 -21 -16 -26 0 -13 -16 -11 -32 4 -7 7 -20 16 -29 19 -14 5 -15 15
-8 60 5 29 6 77 3 107 -9 71 6 61 40 -27 15 -37 33 -78 41 -92 27 -46 15 -1
-25 100 -22 55 -40 117 -40 138 0 20 -7 60 -15 87 l-14 50 6 -64z m-150 -683
c-3 -8 -6 -5 -6 6 -1 11 2 17 5 13 3 -3 4 -12 1 -19z m-30 -24 c-3 -3 -12 -4
-19 -1 -8 3 -5 6 6 6 11 1 17 -2 13 -5z m-61 -17 c4 -4 0 -7 -9 -7 -9 0 -18 4
-21 9 -7 10 20 9 30 -2z m-99 -39 c-3 -8 -6 -5 -6 6 -1 11 2 17 5 13 3 -3 4
-12 1 -19z m139 -60 c-9 -58 -18 -64 -63 -47 -32 13 -38 19 -38 44 0 31 19 42
79 44 28 1 28 0 22 -41z"/>
<path d="M2751 2045 c0 -22 6 -53 14 -70 l13 -30 -5 40 c-3 22 -9 54 -13 70
-8 29 -8 29 -9 -10z"/>
<path d="M3632 1900 c0 -19 2 -27 5 -17 2 9 2 25 0 35 -3 9 -5 1 -5 -18z"/>
</g>
</svg>
